<svg width="32" height="32" viewBox="0 0 32 32" fill="none" xmlns="http://www.w3.org/2000/svg">
<path fill-rule="evenodd" clip-rule="evenodd" d="M13.1244 0V4H14.1244V0H13.1244ZM19.5269 2.57686L16.4183 5.09415L17.0477 5.87129L20.1562 3.35401L19.5269 2.57686ZM21.5319 9.31242L17.6344 8.41262L17.4094 9.38699L21.3069 10.2868L21.5319 9.31242ZM5.94194 10.2868L9.83942 9.38699L9.61446 8.41262L5.71698 9.31242L5.94194 10.2868ZM7.09259 3.35401L10.2012 5.87129L10.8305 5.09415L7.72191 2.57686L7.09259 3.35401ZM19.6232 31C23.766 31 27.1244 27.4148 27.1244 23.5V19.7492V17.5017C27.1244 16.6723 26.4586 16 25.6244 16C24.796 16 24.1244 16.6712 24.1244 17.5017V18H23.1244V15.5064C23.1244 14.6745 22.4586 14 21.6244 14C20.796 14 20.1244 14.6715 20.1244 15.5064V17H19.1244V14.5064C19.1244 13.6745 18.4586 13 17.6244 13C16.796 13 16.1244 13.6715 16.1244 14.5064V18H15.1244V7.50524C15.1244 6.67392 14.4586 6 13.6244 6C12.796 6 12.1244 6.66713 12.1244 7.50524V18.8C10.066 16.5996 7.35605 14.1791 6.24545 15.2957C5.15828 16.3888 7.95978 19.4007 11.8718 25.9831C13.6344 28.9489 15.8647 30.9995 19.6232 31ZM28.1244 23.5C28.1244 28.1944 24.3188 32 19.6244 32C16.5115 32 13.2262 30.5475 10.9652 26.4282C7.70175 20.4825 3.52827 16.5832 5.51553 14.5959C6.93718 13.1743 9.16926 14.5382 11.1244 16.3668V7.50841C11.1244 6.11542 12.2437 5 13.6244 5C15.0148 5 16.1244 6.12305 16.1244 7.50841V12.4984C16.5423 12.1853 17.0616 12 17.6244 12C18.7069 12 19.6193 12.6775 19.9702 13.6281C20.411 13.238 20.9901 13 21.6244 13C23.0148 13 24.1244 14.1182 24.1244 15.4976V15.5111C24.5423 15.1985 25.0616 15.0142 25.6244 15.0142C27.0148 15.0142 28.1244 16.1335 28.1244 17.5143V23.5Z" fill="white"/>
</svg>
